<?xml version="1.0" encoding="iso-8859-1"?>
<!-- Generator: Adobe Illustrator 19.0.0, SVG Export Plug-In . SVG Version: 6.00 Build 0)  -->
<svg version="1.1" id="Layer_1" xmlns="http://www.w3.org/2000/svg" xmlns:xlink="http://www.w3.org/1999/xlink" x="0px" y="0px"
	 viewBox="0 0 512 512" style="enable-background:new 0 0 512 512;" xml:space="preserve">
<g>
	<path style="fill:#507C5C;" d="M428.585,512H83.415c-25.381,0-46.029-20.649-46.029-46.029V46.029C37.387,20.649,58.036,0,83.415,0
		h345.17c25.381,0,46.029,20.649,46.029,46.029v194.023c0,7.957-6.45,14.407-14.407,14.407c-7.957,0-14.407-6.45-14.407-14.407
		V46.029c0-9.493-7.722-17.215-17.215-17.215H83.415c-9.493,0-17.215,7.722-17.215,17.215V465.97
		c0,9.493,7.722,17.215,17.215,17.215h345.17c9.493,0,17.215-7.722,17.215-17.215V323.136c0-7.957,6.45-14.407,14.407-14.407
		c7.957,0,14.407,6.45,14.407,14.407V465.97C474.615,491.351,453.966,512,428.585,512z"/>
	<path style="fill:#507C5C;" d="M379.9,183.385h-44.661c-7.957,0-14.407-6.45-14.407-14.407c0-7.957,6.45-14.407,14.407-14.407
		H379.9c1.985,0,3.602-1.616,3.602-3.602V93.342c0-1.985-1.616-3.602-3.602-3.602H132.102c-1.985,0-3.602,1.616-3.602,3.602v57.627
		c0,1.985,1.616,3.602,3.602,3.602h150.313c7.957,0,14.407,6.45,14.407,14.407c0,7.957-6.45,14.407-14.407,14.407H132.102
		c-17.875,0-32.415-14.541-32.415-32.415V93.342c0-17.875,14.541-32.415,32.415-32.415H379.9c17.875,0,32.415,14.541,32.415,32.415
		v57.627C412.315,168.844,397.774,183.385,379.9,183.385z"/>
</g>
<path style="fill:#CFF09E;" d="M198.373,341.384h-79.238v-76.596c0-8.091,6.559-14.65,14.65-14.65h64.587V341.384z"/>
<path style="fill:#507C5C;" d="M198.373,355.791h-79.238c-7.957,0-14.407-6.45-14.407-14.407v-76.596
	c0-16.022,13.035-29.057,29.057-29.057h64.587c7.957,0,14.407,6.45,14.407,14.407v91.246
	C212.78,349.341,206.33,355.791,198.373,355.791z M133.542,326.977h50.424v-62.432h-50.181c-0.134,0-0.243,0.109-0.243,0.243
	V326.977z"/>
<path style="fill:#CFF09E;" d="M277.611,341.384h-79.238v-91.246h64.587c8.091,0,14.65,6.559,14.65,14.65V341.384z"/>
<path style="fill:#507C5C;" d="M277.611,355.791h-79.238c-7.957,0-14.407-6.45-14.407-14.407v-91.246
	c0-7.957,6.45-14.407,14.407-14.407h64.587c16.022,0,29.057,13.035,29.057,29.057v76.596
	C292.018,349.341,285.568,355.791,277.611,355.791z M212.78,326.977h50.424v-62.189c0-0.134-0.109-0.243-0.243-0.243H212.78V326.977
	z"/>
<path style="fill:#CFF09E;" d="M198.373,432.631h-64.587c-8.091,0-14.65-6.559-14.65-14.65v-76.596h79.238V432.631z"/>
<path style="fill:#507C5C;" d="M198.373,447.037h-64.587c-16.022,0-29.057-13.035-29.057-29.057v-76.596
	c0-7.957,6.45-14.407,14.407-14.407h79.238c7.957,0,14.407,6.45,14.407,14.407v91.246
	C212.78,440.587,206.33,447.037,198.373,447.037z M133.542,355.791v62.189c0,0.134,0.109,0.243,0.243,0.243h50.181v-62.432H133.542
	L133.542,355.791z"/>
<path style="fill:#CFF09E;" d="M262.961,432.631h-64.587v-91.246h79.238v76.596C277.611,426.072,271.052,432.631,262.961,432.631z"
	/>
<path style="fill:#507C5C;" d="M262.961,447.037h-64.587c-7.957,0-14.407-6.45-14.407-14.407v-91.246
	c0-7.957,6.45-14.407,14.407-14.407h79.238c7.957,0,14.407,6.45,14.407,14.407v76.596
	C292.018,434.003,278.983,447.037,262.961,447.037z M212.78,418.223h50.181c0.134,0,0.243-0.109,0.243-0.243v-62.189H212.78V418.223
	z"/>
<path style="fill:#CFF09E;" d="M352.288,250.138c-8.62,0-15.607,6.987-15.607,15.607v75.639v75.639
	c0,8.62,6.987,15.607,15.607,15.607h24.971c8.62,0,15.607-6.987,15.607-15.607v-75.639v-75.639c0-8.62-6.987-15.607-15.607-15.607
	H352.288z"/>
<path style="fill:#507C5C;" d="M377.259,447.037h-24.971c-16.549,0-30.014-13.463-30.014-30.014V265.745
	c0-16.549,13.465-30.014,30.014-30.014h24.971c16.549,0,30.014,13.465,30.014,30.014v151.279
	C407.273,433.573,393.81,447.037,377.259,447.037z M352.288,264.545c-0.661,0-1.2,0.539-1.2,1.2v151.279c0,0.661,0.539,1.2,1.2,1.2
	h24.971c0.661,0,1.2-0.539,1.2-1.2V265.745c0-0.661-0.539-1.2-1.2-1.2L352.288,264.545L352.288,264.545z"/>
<g>
</g>
<g>
</g>
<g>
</g>
<g>
</g>
<g>
</g>
<g>
</g>
<g>
</g>
<g>
</g>
<g>
</g>
<g>
</g>
<g>
</g>
<g>
</g>
<g>
</g>
<g>
</g>
<g>
</g>
</svg>
