<?xml version="1.0" encoding="iso-8859-1"?>
<!-- Generator: Adobe Illustrator 19.0.0, SVG Export Plug-In . SVG Version: 6.00 Build 0)  -->
<svg version="1.1" id="Layer_1" xmlns="http://www.w3.org/2000/svg" xmlns:xlink="http://www.w3.org/1999/xlink" x="0px" y="0px"
	 viewBox="0 0 512 512" style="enable-background:new 0 0 512 512;" xml:space="preserve">
<path style="fill:#999999;" d="M256,0C114.616,0,0,114.616,0,256s114.616,256,256,256s256-114.616,256-256S397.384,0,256,0z"/>
<polygon points="446.512,335.656 65.488,335.656 65.488,348.264 84.536,365.848 427.464,365.848 446.512,348.264 "/>
<path style="fill:#FFFFFF;" d="M101.208,335.656V129.072c0-4.944,4.016-8.984,8.928-8.984h291.72c4.912,0,8.936,4.04,8.936,8.984
	v206.584"/>
<path d="M416.744,335.656H404.84V129.072c0-1.64-1.36-3.032-2.976-3.032H110.136c-1.616,0-2.976,1.392-2.976,3.032v206.584H95.256
	V129.072c0-8.248,6.672-14.944,14.88-14.944h291.72c8.208,0,14.88,6.696,14.88,14.944L416.744,335.656L416.744,335.656z"/>
<polygon style="fill:#999999;" points="290.992,348.184 221.008,348.184 209.104,335.656 302.896,335.656 "/>
<g>
	<path style="fill:#F00000;" d="M253.624,182.688v-14.232c-4.44-1.272-7.696-3.184-9.768-5.76c-2.072-2.568-3.104-5.688-3.104-9.36
		c0-3.712,1.168-6.832,3.512-9.36c2.344-2.52,5.464-3.976,9.36-4.368v-3.36h4.928v3.36c3.6,0.432,6.464,1.656,8.592,3.688
		c2.128,2.024,3.488,4.736,4.08,8.136l-8.592,1.12c-0.52-2.672-1.88-4.488-4.08-5.44v13.28c5.432,1.472,9.136,3.384,11.104,5.728
		c1.968,2.344,2.96,5.352,2.96,9.016c0,4.096-1.24,7.552-3.72,10.36s-5.928,4.528-10.344,5.16v6.352h-4.928v-6.184
		c-3.92-0.472-7.096-1.936-9.544-4.384c-2.448-2.448-4.008-5.896-4.688-10.36l8.864-0.952c0.36,1.816,1.04,3.376,2.04,4.688
		C251.288,181.152,252.4,182.104,253.624,182.688z M253.624,147.024c-1.336,0.456-2.4,1.224-3.192,2.312s-1.192,2.288-1.192,3.6
		c0,1.2,0.36,2.312,1.088,3.344s1.824,1.864,3.296,2.496V147.024z M258.552,183.168c1.696-0.32,3.08-1.104,4.144-2.36
		c1.064-1.256,1.6-2.736,1.6-4.432c0-1.52-0.448-2.824-1.344-3.92s-2.36-1.944-4.4-2.528
		C258.552,169.928,258.552,183.168,258.552,183.168z"/>
	<path style="fill:#F00000;" d="M164.76,309.856v-14.232c-4.44-1.272-7.696-3.184-9.768-5.76c-2.072-2.568-3.104-5.688-3.104-9.36
		c0-3.712,1.168-6.832,3.512-9.36c2.344-2.52,5.464-3.976,9.36-4.368v-3.36h4.928v3.36c3.6,0.432,6.464,1.656,8.592,3.688
		c2.128,2.024,3.488,4.736,4.08,8.136l-8.592,1.12c-0.52-2.672-1.88-4.488-4.08-5.44v13.28c5.432,1.472,9.136,3.384,11.104,5.728
		s2.96,5.352,2.96,9.016c0,4.096-1.24,7.552-3.72,10.36c-2.48,2.808-5.928,4.528-10.344,5.16v6.352h-4.928v-6.184
		c-3.92-0.472-7.096-1.936-9.544-4.384c-2.448-2.448-4.008-5.896-4.688-10.36l8.864-0.952c0.36,1.816,1.04,3.376,2.04,4.688
		C162.432,308.32,163.536,309.272,164.76,309.856z M164.76,274.192c-1.336,0.456-2.4,1.224-3.192,2.312s-1.192,2.288-1.192,3.6
		c0,1.2,0.36,2.312,1.088,3.344s1.824,1.864,3.296,2.496V274.192z M169.688,310.336c1.696-0.32,3.08-1.104,4.144-2.36
		c1.064-1.256,1.6-2.736,1.6-4.432c0-1.52-0.448-2.824-1.344-3.92s-2.36-1.944-4.4-2.528
		C169.688,297.096,169.688,310.336,169.688,310.336z"/>
	<path style="fill:#F00000;" d="M342.448,309.856v-14.232c-4.44-1.272-7.696-3.184-9.768-5.76c-2.072-2.568-3.104-5.688-3.104-9.36
		c0-3.712,1.168-6.832,3.512-9.36c2.344-2.52,5.464-3.976,9.36-4.368v-3.36h4.928v3.36c3.6,0.432,6.464,1.656,8.592,3.688
		c2.128,2.024,3.488,4.736,4.08,8.136l-8.592,1.12c-0.52-2.672-1.88-4.488-4.08-5.44v13.28c5.432,1.472,9.136,3.384,11.104,5.728
		c1.968,2.344,2.96,5.352,2.96,9.016c0,4.096-1.24,7.552-3.72,10.36c-2.48,2.808-5.928,4.528-10.344,5.16v6.352h-4.928v-6.184
		c-3.92-0.472-7.096-1.936-9.544-4.384s-4.008-5.896-4.688-10.36l8.864-0.952c0.36,1.816,1.04,3.376,2.04,4.688
		C340.12,308.32,341.224,309.272,342.448,309.856z M342.448,274.192c-1.336,0.456-2.4,1.224-3.192,2.312s-1.192,2.288-1.192,3.6
		c0,1.2,0.36,2.312,1.088,3.344s1.824,1.864,3.296,2.496C342.448,285.944,342.448,274.192,342.448,274.192z M347.376,310.336
		c1.696-0.32,3.08-1.104,4.144-2.36c1.064-1.256,1.6-2.736,1.6-4.432c0-1.52-0.448-2.824-1.344-3.92s-2.36-1.944-4.4-2.528
		C347.376,297.096,347.376,310.336,347.376,310.336z"/>
</g>
<polygon points="349.12,254.232 341.12,254.232 341.12,236.424 170.88,236.424 170.88,254.232 162.88,254.232 162.88,228.424 
	349.12,228.424 "/>
<rect x="252" y="206.68" width="8" height="25.328"/>
<g>
</g>
<g>
</g>
<g>
</g>
<g>
</g>
<g>
</g>
<g>
</g>
<g>
</g>
<g>
</g>
<g>
</g>
<g>
</g>
<g>
</g>
<g>
</g>
<g>
</g>
<g>
</g>
<g>
</g>
</svg>
