<?xml version="1.0" standalone="no"?><svg xmlns="http://www.w3.org/2000/svg" viewBox="0 0 1440 320"><path fill="#008080" fill-opacity="0.53" d="M0,128L15,154.7C30,181,60,235,90,245.3C120,256,150,224,180,197.3C210,171,240,149,270,154.7C300,160,330,192,360,224C390,256,420,288,450,261.3C480,235,510,149,540,117.3C570,85,600,107,630,133.3C660,160,690,192,720,186.7C750,181,780,139,810,138.7C840,139,870,181,900,213.3C930,245,960,267,990,282.7C1020,299,1050,309,1080,282.7C1110,256,1140,192,1170,176C1200,160,1230,192,1260,213.3C1290,235,1320,245,1350,234.7C1380,224,1410,192,1425,176L1440,160L1440,320L1425,320C1410,320,1380,320,1350,320C1320,320,1290,320,1260,320C1230,320,1200,320,1170,320C1140,320,1110,320,1080,320C1050,320,1020,320,990,320C960,320,930,320,900,320C870,320,840,320,810,320C780,320,750,320,720,320C690,320,660,320,630,320C600,320,570,320,540,320C510,320,480,320,450,320C420,320,390,320,360,320C330,320,300,320,270,320C240,320,210,320,180,320C150,320,120,320,90,320C60,320,30,320,15,320L0,320Z"></path></svg>